<svg width="1312" height="608" xmlns="http://www.w3.org/2000/svg" xmlns:xlink="http://www.w3.org/1999/xlink" overflow="hidden"><defs><clipPath id="clip0"><rect x="-16" y="153" width="1312" height="608"/></clipPath><clipPath id="clip1"><rect x="-15" y="305" width="455" height="455"/></clipPath><clipPath id="clip2"><rect x="-15" y="305" width="456" height="455"/></clipPath><clipPath id="clip3"><rect x="-15" y="305" width="456" height="455"/></clipPath><clipPath id="clip4"><rect x="410" y="349" width="411" height="411"/></clipPath><clipPath id="clip5"><rect x="410" y="349" width="411" height="411"/></clipPath><clipPath id="clip6"><rect x="410" y="349" width="411" height="411"/></clipPath><clipPath id="clip7"><rect x="781" y="154" width="514" height="514"/></clipPath><clipPath id="clip8"><rect x="781" y="154" width="514" height="514"/></clipPath><clipPath id="clip9"><rect x="781" y="154" width="514" height="514"/></clipPath></defs><g clip-path="url(#clip0)" transform="translate(16 -153)"><g clip-path="url(#clip1)"><g clip-path="url(#clip2)"><g clip-path="url(#clip3)"><path d="M421.579 704.946C411.912 693.206 400.505 683.014 387.754 674.724 376.557 667.293 364.771 660.791 352.513 655.284L352.513 620.034 422.116 626.791 388.087 573.687 409.629 579.439 383.015 538.302 398.955 540.283 351.564 470.506 304.173 540.281 320.113 538.301 293.499 579.438 315.04 573.687 281.01 626.792 343.032 620.773 343.032 651.334C336.992 648.956 330.24 646.525 322.361 643.89 303.581 637.959 284.245 633.953 264.653 631.936 261.751 631.667 258.519 631.423 255.156 631.207L255.156 572.965 283.025 578.178 288.59 569.576 250.417 562.435 162.361 578.901 168.173 587.457 245.677 572.965 245.677 630.77C229.376 630.104 213.06 631.673 197.184 635.433 189.593 637.237 182.183 639.731 175.047 642.885 170.168 645.11 165.761 647.455 161.598 649.852 164.862 651.558 168.009 653.444 171.068 655.393 173.587 654.074 176.204 652.775 178.983 651.507 185.598 648.592 192.466 646.287 199.501 644.621 220.598 639.96 242.326 638.861 263.786 641.369 282.652 643.308 301.271 647.163 319.356 652.874 341.793 659.681 363.115 669.731 382.646 682.705 393.398 689.752 403.152 698.214 411.645 707.865L423.86 707.865ZM299.526 615.469 336.21 558.224 314.818 563.934 339.108 526.389 323.77 528.294 351.564 487.379 379.358 528.295 364.019 526.391 388.31 563.936 366.916 558.224 403.6 615.469 351.564 610.419Z" fill="#000000" fill-opacity="0.10196"/><path d="M202.577 705.289C197.8 698.411 192.432 691.963 186.535 686.018 175.913 675.151 163.419 666.288 149.653 659.853 143.095 657.146 136.155 655.479 129.083 654.912L129.083 630.341 168.935 634.209 149.729 607.67 160.602 609.639 145.179 584.209 154.542 584.261 124.346 539.804 94.1455 584.261 103.509 584.209 88.0859 609.641 98.9581 607.672 79.7552 634.211 119.607 630.343 119.607 654.364C111.604 654.202 103.602 654.733 95.6911 655.952 87.2513 657.214 78.9239 659.138 70.7865 661.707L70.7865 618.429 76.3754 609.449 66.0469 608.449 20.581 612.862 53.4803 561.533 34.3865 566.628 55.9459 533.301 42.2826 534.998 66.0469 500.015 89.8092 534.997 76.1507 533.301 96.2238 564.33 102.006 555.818 95.1456 545.212 108.117 546.823 108.711 545.949 66.0469 483.144 22.6868 546.986 36.9529 545.214 13.0697 582.136 32.3124 576.998 2.06582 624.183 61.3073 618.433 61.3073 665.216C54.242 668.106 47.3696 671.448 40.7332 675.22 27.0458 683.208 14.5825 693.129 3.72846 704.677 2.82083 705.679 0.830209 707.865 0.830209 707.865L13.8423 707.865C23.2765 698.425 33.8779 690.23 45.3889 683.477 61.2879 674.032 78.9115 667.853 97.2281 665.303 107.684 663.587 131.303 662.05 145.795 668.51 158.43 674.467 169.909 682.617 179.699 692.582 184.376 697.397 188.747 702.501 192.783 707.865L204.403 707.865C204.403 707.865 203.45 706.483 202.577 705.289ZM120.454 594.145 107.101 596.563 120.403 574.635 112.113 574.682 124.346 556.672 136.574 574.679 128.285 574.632 141.587 596.56 128.234 594.143 148.932 622.742 124.346 620.355 99.7501 622.742Z" fill="#000000" fill-opacity="0.10196"/><path d="M324.958 492.807 295.62 447.456 321.359 450.654 250.417 346.212 179.476 450.654 205.215 447.456 162.661 513.236 197.648 503.895 155.787 569.222 161.578 577.751 218.819 488.431 183.98 497.733 224.211 435.545 199.073 438.666 250.417 363.083 301.761 438.666 276.627 435.545 316.79 497.63C316.827 497.686 316.804 497.719 316.739 497.702L282.018 488.431 304.306 523.213 310.099 514.682 303.187 503.894 315.241 507.112Z" fill="#000000" fill-opacity="0.10196"/><path d="M78.6163 561.53 88.0859 576.308 95.129 565.938 78.6163 561.53Z" fill="#000000" fill-opacity="0.10196"/></g></g></g><g clip-path="url(#clip4)"><g clip-path="url(#clip5)"><g clip-path="url(#clip6)"><path d="M804.36 710.27C795.628 699.665 785.324 690.458 773.807 682.97 763.693 676.258 753.046 670.385 741.973 665.41L741.973 633.57 804.846 639.672 774.107 591.704 793.566 596.9 769.525 559.741 783.924 561.53 741.116 498.501 698.308 561.529 712.707 559.74 688.667 596.898 708.124 591.704 677.385 639.674 733.409 634.237 733.409 661.842C727.953 659.694 721.854 657.498 714.737 655.118 697.773 649.76 680.307 646.142 662.61 644.32 659.989 644.077 657.069 643.857 654.031 643.661L654.031 591.052 679.205 595.761 684.232 587.991 649.75 581.54 570.21 596.413 575.459 604.143 645.469 591.052 645.469 643.267C630.744 642.666 616.006 644.083 601.665 647.479 594.808 649.108 588.115 651.361 581.669 654.21 577.262 656.22 573.281 658.338 569.52 660.504 572.469 662.045 575.311 663.748 578.074 665.509 580.35 664.318 582.714 663.144 585.224 661.998 591.2 659.365 597.403 657.283 603.758 655.779 622.815 651.568 642.442 650.575 661.827 652.841 678.868 654.593 695.687 658.075 712.022 663.233 732.29 669.382 751.55 678.46 769.192 690.18 778.904 696.545 787.715 704.189 795.387 712.906L806.421 712.906ZM694.11 629.446 727.247 577.737 707.924 582.895 729.865 548.98 716.01 550.7 741.116 513.742 766.222 550.702 752.367 548.981 774.308 582.896 754.983 577.737 788.12 629.446 741.116 624.884Z" fill="#000000" fill-opacity="0.10196"/><path d="M606.537 710.579C602.221 704.367 597.373 698.543 592.046 693.172 582.451 683.356 571.166 675.35 558.731 669.537 552.807 667.092 546.538 665.586 540.15 665.074L540.15 642.879 576.148 646.374 558.799 622.401 568.62 624.179 554.69 601.208 563.147 601.256 535.871 561.097 508.591 601.256 517.049 601.208 503.117 624.181 512.938 622.402 495.592 646.376 531.59 642.881 531.59 664.579C524.361 664.433 517.133 664.913 509.987 666.014 502.363 667.153 494.841 668.892 487.491 671.212L487.491 632.119 492.539 624.008 483.209 623.104 442.14 627.091 471.858 580.725 454.611 585.328 474.085 555.223 461.743 556.757 483.209 525.156 504.674 556.756 492.336 555.223 510.468 583.252 515.691 575.563 509.494 565.983 521.211 567.438 521.748 566.648 483.209 509.917 444.042 567.585 456.929 565.985 435.355 599.336 452.737 594.695 425.415 637.317 478.928 632.123 478.928 674.382C472.546 676.993 466.338 680.011 460.344 683.418 447.98 690.634 436.722 699.596 426.917 710.027 426.098 710.932 424.299 712.906 424.299 712.906L436.053 712.906C444.575 704.38 454.151 696.977 464.549 690.877 478.911 682.345 494.83 676.764 511.375 674.461 520.82 672.91 542.155 671.522 555.245 677.357 566.659 682.738 577.027 690.1 585.871 699.102 590.096 703.451 594.044 708.062 597.69 712.906L608.186 712.906C608.186 712.906 607.325 711.658 606.537 710.579ZM532.355 610.184 520.293 612.368 532.309 592.56 524.821 592.603 535.871 576.334 546.917 592.601 539.429 592.558 551.444 612.365 539.383 610.182 558.079 636.015 535.87 633.859 513.653 636.015Z" fill="#000000" fill-opacity="0.10196"/><path d="M717.083 518.645 690.582 477.68 713.832 480.569 649.75 386.227 585.67 480.569 608.92 477.68 570.481 537.099 602.084 528.661 564.271 587.671 569.503 595.375 621.208 514.693 589.738 523.095 626.079 466.921 603.372 469.74 649.75 401.466 696.129 469.74 673.425 466.921 709.705 523.002C709.738 523.053 709.718 523.082 709.658 523.067L678.296 514.693 698.428 546.111 703.661 538.405 697.417 528.66 708.306 531.567Z" fill="#000000" fill-opacity="0.10196"/><path d="M494.563 580.723 503.117 594.072 509.479 584.704 494.563 580.723Z" fill="#000000" fill-opacity="0.10196"/></g></g></g><g clip-path="url(#clip7)"><g clip-path="url(#clip8)"><g clip-path="url(#clip9)"><path d="M1274.19 605.808C1263.27 592.545 1250.38 581.031 1235.98 571.666 1223.33 563.271 1210.02 555.927 1196.17 549.705L1196.17 509.885 1274.8 517.517 1236.36 457.528 1260.69 464.026 1230.63 417.555 1248.63 419.792 1195.1 340.967 1141.56 419.79 1159.57 417.553 1129.5 464.024 1153.84 457.528 1115.39 517.519 1185.46 510.719 1185.46 545.243C1178.64 542.557 1171.01 539.811 1162.11 536.834 1140.89 530.133 1119.05 525.608 1096.92 523.329 1093.64 523.026 1089.99 522.75 1086.19 522.506L1086.19 456.712 1117.67 462.601 1123.96 452.884 1080.83 444.816 981.359 463.417 987.925 473.084 1075.48 456.712 1075.48 522.013C1057.06 521.26 1038.63 523.033 1020.7 527.281 1012.12 529.318 1003.75 532.135 995.69 535.699 990.179 538.212 985.2 540.861 980.497 543.569 984.185 545.497 987.739 547.627 991.195 549.829 994.041 548.339 996.998 546.871 1000.14 545.438 1007.61 542.146 1015.37 539.542 1023.32 537.66 1047.15 532.394 1071.69 531.152 1095.94 533.986 1117.25 536.177 1138.28 540.532 1158.71 546.983 1184.06 554.673 1208.15 566.026 1230.21 580.682 1242.35 588.643 1253.37 598.203 1262.97 609.104L1276.77 609.104ZM1136.31 504.728 1177.75 440.06 1153.59 446.51 1181.03 404.097 1163.7 406.248 1195.1 360.028 1226.49 406.25 1209.17 404.098 1236.61 446.512 1212.44 440.06 1253.88 504.728 1195.1 499.022Z" fill="#000000" fill-opacity="0.10196"/><path d="M1026.79 606.194C1021.39 598.425 1015.33 591.141 1008.67 584.425 996.669 572.149 982.555 562.136 967.004 554.866 959.596 551.809 951.756 549.926 943.767 549.285L943.767 521.528 988.786 525.898 967.089 495.917 979.372 498.142 961.95 469.414 972.527 469.473 938.415 419.251 904.298 469.473 914.876 469.414 897.453 498.144 909.735 495.919 888.042 525.9 933.061 521.53 933.061 548.666C924.021 548.483 914.981 549.083 906.044 550.46 896.51 551.885 887.103 554.059 877.91 556.961L877.91 508.071 884.224 497.927 872.556 496.797 821.195 501.783 858.36 443.797 836.79 449.554 861.145 411.904 845.71 413.822 872.556 374.303 899.4 413.821 883.97 411.904 906.646 446.958 913.178 437.342 905.428 425.36 920.081 427.181 920.753 426.192 872.556 355.244 823.574 427.364 839.69 425.363 812.71 467.072 834.447 461.268 800.279 514.572 867.202 508.076 867.202 560.926C859.221 564.19 851.457 567.965 843.96 572.226 828.498 581.25 814.419 592.458 802.157 605.503 801.132 606.635 798.883 609.104 798.883 609.104L813.582 609.104C824.24 598.441 836.216 589.183 849.22 581.554 867.18 570.884 887.089 563.904 907.781 561.024 919.592 559.085 946.274 557.349 962.645 564.646 976.919 571.376 989.886 580.583 1000.95 591.84 1006.23 597.279 1011.17 603.045 1015.73 609.104L1028.85 609.104C1028.85 609.104 1027.78 607.543 1026.79 606.194ZM934.018 480.639 918.933 483.37 933.961 458.599 924.596 458.652 938.415 438.306 952.229 458.649 942.865 458.595 957.891 483.366 942.807 480.636 966.189 512.944 938.415 510.247 910.63 512.944Z" fill="#000000" fill-opacity="0.10196"/><path d="M1165.04 366.16 1131.9 314.928 1160.98 318.541 1080.83 200.556 1000.69 318.541 1029.77 314.928 981.698 389.238 1021.22 378.685 973.933 452.484 980.475 462.118 1045.14 361.216 1005.78 371.725 1051.23 301.472 1022.83 304.999 1080.83 219.615 1138.83 304.999 1110.44 301.472 1155.81 371.608C1155.86 371.672 1155.83 371.708 1155.76 371.689L1116.53 361.216 1141.71 400.508 1148.26 390.871 1140.45 378.684 1154.06 382.32Z" fill="#000000" fill-opacity="0.10196"/><path d="M886.755 443.794 897.453 460.489 905.409 448.774 886.755 443.794Z" fill="#000000" fill-opacity="0.10196"/></g></g></g></g></svg>