<svg viewBox="0 0 96 96" xmlns="http://www.w3.org/2000/svg" xmlns:xlink="http://www.w3.org/1999/xlink" id="Icons_Baseball" overflow="hidden"><circle cx="55.4" cy="21" r="7" fill="#C55A11"/><path d="M73.2 86.7 63.4 58 63.4 33C63.4 31.3 62.1 30 60.4 30L48.4 30C47.9 30 47.3 30.1 46.9 30.4L38.9 35.2 29.6 25.9C28.4 24.7 26.5 24.7 25.4 25.9 24.2 27.1 24.2 29 25.4 30.1L36.4 41.1C37 41.7 37.7 42 38.5 42 39 42 39.6 41.9 40 41.6L47.5 37.1 47.5 58.1 37.7 86.8C37 88.9 38.1 91.2 40.2 91.9 40.6 92 41.1 92.1 41.5 92.1 43.2 92.1 44.7 91.1 45.3 89.4L55.5 59.5 65.7 89.4C66.3 91.1 67.8 92.1 69.5 92.1 69.9 92.1 70.4 92 70.8 91.9 72.8 91.1 73.9 88.8 73.2 86.7Z" fill="#C55A11"/><path d="M25.6 35.8C25.3 35.8 25.1 35.7 24.9 35.5L22.9 33.5C22.5 33.1 22.5 32.5 22.9 32.1 23.3 31.7 23.9 31.7 24.3 32.1L26.3 34.1C26.7 34.5 26.7 35.1 26.3 35.5 26.1 35.7 25.9 35.8 25.6 35.8Z" fill="#C55A11"/><path d="M54.4 7C54.4 5.3 53.1 4 51.4 4 50.6 4 49.8 4.3 49.3 4.9L41.3 12.9C36.3 17.9 35.2 21.3 31.5 25L33.4 26.9C37.4 22.9 39.8 22.9 45.6 17.1L53.6 9.1C54 8.6 54.4 7.8 54.4 7Z" fill="#C55A11"/></svg>