<svg viewBox="0 0 96 96" xmlns="http://www.w3.org/2000/svg" xmlns:xlink="http://www.w3.org/1999/xlink" id="Icons_UserCrownMale_M" overflow="hidden"><g id="Icons"><path d="M64.8 2.961 55.837 9.479 47.981 3.763 40.124 9.479 31.165 2.961 32.165 23 33.635 23C29.7481 30.9358 33.0303 40.52 40.9661 44.4069 48.9019 48.2938 58.4861 45.0116 62.373 37.0758 64.5477 32.6358 64.5477 27.4399 62.373 23L63.8 23ZM62 30C62.0231 37.732 55.7739 44.0187 48.042 44.0418 40.31 44.065 34.0233 37.8158 34.0001 30.0838 33.9927 27.5957 34.6485 25.1505 35.9 23L60.107 23C61.347 25.1244 62.0002 27.5402 62 30ZM61.9 21 34.067 21 33.367 7.039 40.12 11.952 47.977 6.237 55.833 11.952 62.588 7.039Z"/><path d="M76.533 59.525C71.9429 55.9913 66.6845 53.4244 61.075 51.979 59.783 51.592 58.482 51.258 57.209 50.986L56.702 50.877 56.321 51.23C52.246 55 49.484 55 48 55 46.516 55 43.731 55 39.676 51.28L39.297 50.932 38.797 51.038C37.572 51.296 36.278 51.611 34.94 51.976 29.3979 53.6002 24.1705 56.1502 19.479 59.518 17.3279 61.2033 16.0501 63.7678 16 66.5L16 82 18 82 18 66.5C18.0441 64.391 19.0303 62.4126 20.688 61.108 25.1778 57.8941 30.1771 55.46 35.476 53.908 36.586 53.608 37.676 53.336 38.711 53.108 42.6 56.527 45.584 57 48 57 50.416 57 53.384 56.521 57.29 53.051 58.351 53.291 59.43 53.574 60.513 53.899 65.8678 55.2721 70.8893 57.7148 75.275 61.08 76.952 62.3851 77.9527 64.3755 78 66.5L78 82 80 82 80 66.5C79.9516 63.772 78.6784 61.2106 76.533 59.525Z"/></g></svg>