<svg width="1290" height="624" xmlns="http://www.w3.org/2000/svg" xmlns:xlink="http://www.w3.org/1999/xlink" overflow="hidden"><defs><clipPath id="clip0"><rect x="-43" y="117" width="1290" height="624"/></clipPath><clipPath id="clip1"><rect x="-42" y="349" width="827" height="391"/></clipPath><clipPath id="clip2"><rect x="-42" y="349" width="828" height="392"/></clipPath><clipPath id="clip3"><rect x="-42" y="349" width="828" height="392"/></clipPath><clipPath id="clip4"><rect x="685" y="118" width="561" height="568"/></clipPath><clipPath id="clip5"><rect x="685" y="118" width="561" height="568"/></clipPath><clipPath id="clip6"><rect x="685" y="118" width="561" height="568"/></clipPath></defs><g clip-path="url(#clip0)" transform="translate(43 -117)"><g clip-path="url(#clip1)"><g clip-path="url(#clip2)"><g clip-path="url(#clip3)"><path d="M172.345 274.515C176.068 272.845 179.819 271.228 183.57 269.627L179.542 268.279C130.68 251.816 80.188 240.661 28.9381 235.007L20.3849 234.144 20.3849 242.339 28.0828 243.116C77.1305 248.542 125.479 259.065 172.345 274.515Z" fill="#262626" fill-opacity="0.15" transform="matrix(2.11509 0 0 1 -42 349)"/><path d="M96.9354 211.938 105.081 213.637C147.397 222.614 188.8 235.457 228.768 252.004 232.599 250.66 236.441 249.345 240.294 248.061 197.274 229.597 152.545 215.403 106.751 205.682L98.5646 203.959 97.75 203.809 97.75 176.496C105.358 176.421 112.713 173.753 118.599 168.932 127.739 160.151 126.191 144.495 126.122 143.839L125.784 140.691 122.652 140.239C117.796 139.671 112.879 139.969 108.128 141.118 108.702 139.167 109.071 137.162 109.232 135.135 109.232 122.66 97.1146 111.512 96.6055 111.028L93.8644 108.535 91.1234 111.028C90.6061 111.496 78.4973 122.66 78.4973 135.429 78.6407 137.335 78.9637 139.224 79.4626 141.07 74.6541 139.897 69.6738 139.599 64.7594 140.19L61.6314 140.646 61.2974 143.786C61.2282 144.45 59.6682 160.098 68.8119 168.879 74.683 173.685 82.0179 176.343 89.6042 176.414L89.6042 202.29C69.5817 198.559 49.2171 195.606 28.8648 193.602L20.3849 192.853 20.3849 201.031 28.1235 201.711C51.2047 203.988 74.3674 207.43 96.9354 211.938ZM118.115 148.095C118.305 153.549 116.471 158.88 112.966 163.063 109.08 166.146 104.332 167.945 99.3792 168.211 98.9466 164.735 99.0098 161.215 99.5665 157.756 100.308 155.837 101.467 154.106 102.959 152.69 107.142 149.423 112.373 147.794 117.671 148.108ZM93.8807 119.931C97.8241 123.989 100.361 129.206 101.118 134.814 100.658 139.783 98.5002 144.443 95.0089 148.01 94.117 148.167 93.1977 148.045 92.3778 147.66 88.9525 144.352 86.9014 139.873 86.635 135.119 87.3425 129.406 89.8852 124.076 93.8807 119.931ZM88.3578 168.15C83.307 167.929 78.4525 166.13 74.4773 163.006 70.9791 158.821 69.1475 153.494 69.3333 148.042 74.7437 147.647 80.1122 149.24 84.4316 152.523 85.9471 154.094 87.1572 155.934 87.9994 157.948 88.8987 161.276 89.0213 164.767 88.3578 168.15Z" fill="#262626" fill-opacity="0.15" transform="matrix(2.11509 0 0 1 -42 349)"/><path d="M115.064 298.899 119.951 300.076 120.64 300.276C124.042 298.41 127.458 296.573 130.887 294.765L122.041 292.207 116.97 290.985C87.9636 284.072 58.5563 278.966 28.9177 275.696L20.4053 274.922 20.4053 283.1 28.1031 283.797C57.374 287.033 86.4163 292.077 115.064 298.899Z" fill="#262626" fill-opacity="0.15" transform="matrix(2.11509 0 0 1 -42 349)"/><path d="M62.446 327.788C65.0282 328.159 68.8689 328.603 72.6283 329.047 76.256 326.676 79.9053 324.341 83.5762 322.041 79.4259 321.606 68.7468 320.465 63.619 319.724L58.4667 318.999C49.6285 317.753 40.2526 316.657 28.9381 315.545L20.4053 314.775 20.4053 322.954 28.1764 323.654C39.3403 324.754 48.6062 325.837 57.3304 327.063Z" fill="#262626" fill-opacity="0.15" transform="matrix(2.11509 0 0 1 -42 349)"/><path d="M190.014 27.9239 198.16 27.9239 198.16 48.2885 190.014 48.2885Z" fill="#262626" fill-opacity="0.15" transform="matrix(2.11509 0 0 1 -42 349)"/><path d="M190.014 114.042 198.16 114.042 198.16 134.406 190.014 134.406Z" fill="#262626" fill-opacity="0.15" transform="matrix(2.11509 0 0 1 -42 349)"/><path d="M226.963 77.0922 247.328 77.0922 247.328 85.238 226.963 85.238Z" fill="#262626" fill-opacity="0.15" transform="matrix(2.11509 0 0 1 -42 349)"/><path d="M140.846 77.0922 161.21 77.0922 161.21 85.238 140.846 85.238Z" fill="#262626" fill-opacity="0.15" transform="matrix(2.11509 0 0 1 -42 349)"/><path d="M274.055 59.634 300.092 59.634 300.092 70.0486 274.055 70.0486Z" fill="#262626" fill-opacity="0.15" transform="matrix(1.16979 -0.553067 1.16979 0.553067 21.2483 522.624)"/><path d="M196.195 137.494 222.232 137.494 222.232 147.908 196.195 147.908Z" fill="#262626" fill-opacity="0.15" transform="matrix(1.16979 -0.553067 1.16979 0.553067 -107.557 497.401)"/><path d="M281.866 129.677 292.281 129.677 292.281 155.714 281.866 155.714Z" fill="#262626" fill-opacity="0.15" transform="matrix(1.16979 -0.553067 1.16979 0.553067 -69.8251 540.46)"/><path d="M204.016 51.8242 214.431 51.8242 214.431 77.8612 204.016 77.8612Z" fill="#262626" fill-opacity="0.15" transform="matrix(1.16972 -0.553074 1.1698 0.553036 -16.475 479.57)"/><path d="M194.087 105.831C207.583 105.831 218.524 94.8896 218.524 81.3932 218.524 67.8967 207.583 56.9557 194.087 56.9557 180.59 56.9557 169.649 67.8967 169.649 81.3932 169.649 94.8896 180.59 105.831 194.087 105.831ZM194.087 65.1015C203.084 65.1015 210.378 72.3957 210.378 81.3932 210.378 90.3906 203.084 97.6848 194.087 97.6848 185.089 97.6848 177.795 90.3906 177.795 81.3932 177.797 72.3937 185.087 65.0966 194.087 65.0852Z" fill="#262626" fill-opacity="0.15" transform="matrix(2.11509 0 0 1 -42 349)"/><path d="M131.282 358.417 148.519 358.417 155.5 354.674C222.705 318.586 295.398 293.817 370.656 281.361L370.656 273.113C294.047 285.64 220.043 310.774 151.651 347.493Z" fill="#262626" fill-opacity="0.15" transform="matrix(2.11509 0 0 1 -42 349)"/><path d="M226.116 358.417 249.67 358.417 281.581 346.662C310.736 337.073 340.487 329.401 370.644 323.695L370.644 315.394C339.571 321.209 308.919 329.086 278.893 338.973Z" fill="#262626" fill-opacity="0.15" transform="matrix(2.11509 0 0 1 -42 349)"/><path d="M325.019 237.858 317.688 239.398 317.688 219.832C325.295 219.754 332.649 217.086 338.537 212.268 347.676 203.487 346.129 187.831 346.059 187.175L345.721 184.027 342.589 183.574C337.734 183.007 332.817 183.305 328.065 184.454 328.639 182.503 329.009 180.498 329.169 178.471 329.169 165.996 317.052 154.848 316.543 154.364L313.802 151.871 311.061 154.364C310.544 154.832 298.435 165.996 298.435 178.764 298.578 180.671 298.901 182.56 299.4 184.405 294.592 183.233 289.611 182.935 284.697 183.526L281.569 183.982 281.235 187.122C281.166 187.786 279.606 203.434 288.749 212.215 294.613 217.02 301.941 219.678 309.521 219.75L309.521 241.288C217.826 262.392 131.196 301.384 54.5974 356.03L51.2943 358.417 65.4925 358.417C141.735 305.176 227.733 267.501 318.559 247.548L326.705 245.837C341.775 242.701 356.502 240.135 370.66 238.099L370.66 229.871C355.973 231.944 340.683 234.6 325.019 237.858ZM338.052 191.427C338.243 196.881 336.409 202.212 332.904 206.395 329.017 209.471 324.271 211.265 319.321 211.527 318.888 208.051 318.951 204.53 319.508 201.072 320.249 199.152 321.408 197.421 322.901 196.005 327.085 192.739 332.317 191.111 337.616 191.427ZM313.818 163.267C317.764 167.328 320.301 172.55 321.056 178.162 320.594 183.131 318.437 187.79 314.946 191.358 314.054 191.516 313.135 191.394 312.315 191.008 308.89 187.7 306.839 183.221 306.573 178.467 307.278 172.749 309.82 167.415 313.818 163.267ZM308.295 211.486C303.245 211.265 298.39 209.466 294.415 206.342 290.917 202.157 289.085 196.829 289.271 191.378 294.683 190.966 300.057 192.561 304.369 195.858 305.885 197.43 307.095 199.269 307.937 201.284 308.836 204.612 308.959 208.103 308.295 211.486Z" fill="#262626" fill-opacity="0.15" transform="matrix(2.11509 0 0 1 -42 349)"/></g></g></g><g clip-path="url(#clip4)"><g clip-path="url(#clip5)"><g clip-path="url(#clip6)"><path d="M538.288 493.121C526.368 478.645 512.303 466.078 496.583 455.857 482.777 446.695 468.245 438.679 453.131 431.888L453.131 388.427 538.95 396.757 496.993 331.282 523.553 338.374 490.739 287.654 510.393 290.096 451.961 204.064 393.53 290.094 413.184 287.652 380.37 338.372 406.929 331.282 364.971 396.759 441.442 389.338 441.442 427.018C433.995 424.086 425.67 421.089 415.955 417.84 392.799 410.527 368.959 405.588 344.803 403.101 341.225 402.77 337.24 402.469 333.093 402.202L333.093 330.392 367.454 336.82 374.317 326.214 327.25 317.409 218.68 337.71 225.846 348.261 321.406 330.392 321.406 401.664C301.307 400.843 281.19 402.778 261.616 407.413 252.257 409.637 243.12 412.712 234.322 416.601 228.307 419.345 222.872 422.236 217.739 425.191 221.764 427.295 225.644 429.62 229.415 432.023 232.522 430.397 235.749 428.795 239.174 427.231 247.331 423.637 255.798 420.796 264.472 418.742 290.485 412.995 317.275 411.639 343.734 414.732 366.995 417.123 389.952 421.876 412.25 428.917 439.915 437.31 466.204 449.701 490.284 465.698 503.541 474.386 515.567 484.82 526.039 496.719L541.1 496.719ZM387.8 382.798 433.031 312.217 406.655 319.258 436.604 272.966 417.692 275.314 451.961 224.867 486.23 275.315 467.318 272.967 497.267 319.259 470.889 312.217 516.12 382.798 451.961 376.571Z" fill="#262626" fill-opacity="0.15" transform="matrix(1 0 0 1.01248 685 118)"/><path d="M268.266 493.543C262.375 485.063 255.757 477.113 248.486 469.783 235.389 456.384 219.985 445.456 203.012 437.522 194.926 434.184 186.369 432.129 177.65 431.429L177.65 401.134 226.786 405.904 203.105 373.182 216.511 375.61 197.496 344.255 209.04 344.32 171.809 289.505 134.573 344.32 146.118 344.255 127.102 375.612 140.507 373.184 116.83 405.907 165.965 401.137 165.965 430.754C156.098 430.555 146.232 431.21 136.478 432.713 126.072 434.268 115.805 436.64 105.772 439.808L105.772 386.447 112.663 375.376 99.9281 374.143 43.8702 379.584 84.434 316.296 60.8919 322.579 87.4739 281.487 70.6276 283.58 99.9281 240.447 129.226 283.579 112.386 281.487 137.135 319.745 144.265 309.251 135.806 296.174 151.799 298.16 152.532 297.082 99.9281 219.646 46.4666 298.361 64.0563 296.176 34.609 341.699 58.3346 335.365 21.0416 393.543 94.0844 386.452 94.0844 444.135C85.3731 447.698 76.8997 451.818 68.7172 456.469 51.8411 466.318 36.4743 478.551 23.0916 492.788 21.9725 494.024 19.5181 496.719 19.5181 496.719L35.5616 496.719C47.1937 485.08 60.2648 474.976 74.4576 466.65 94.0604 455.004 115.79 447.386 138.374 444.242 151.265 442.126 180.387 440.231 198.254 448.195 213.833 455.541 227.986 465.59 240.057 477.876 245.824 483.813 251.213 490.106 256.19 496.719L270.517 496.719C270.517 496.719 269.341 495.015 268.266 493.543ZM167.01 356.507 150.546 359.487 166.947 332.451 156.726 332.509 171.809 310.303 186.886 332.506 176.665 332.447 193.066 359.484 176.603 356.503 202.123 391.766 171.809 388.823 141.483 391.766Z" fill="#262626" fill-opacity="0.15" transform="matrix(1 0 0 1.01248 685 118)"/><path d="M419.158 231.56 382.985 175.643 414.72 179.587 327.25 50.8132 239.783 179.587 271.518 175.643 219.05 256.748 262.188 245.231 210.574 325.777 217.715 336.293 288.291 226.164 245.336 237.634 294.939 160.957 263.945 164.806 327.25 71.6146 390.555 164.806 359.566 160.957 409.086 237.506C409.132 237.576 409.103 237.616 409.023 237.595L366.214 226.164 393.693 269.049 400.837 258.53 392.314 245.229 407.177 249.197Z" fill="#262626" fill-opacity="0.15" transform="matrix(1 0 0 1.01248 685 118)"/><path d="M115.426 316.293 127.102 334.514 135.785 321.728 115.426 316.293Z" fill="#262626" fill-opacity="0.15" transform="matrix(1 0 0 1.01248 685 118)"/></g></g></g></g></svg>