<svg width="1040" height="499" xmlns="http://www.w3.org/2000/svg" xmlns:xlink="http://www.w3.org/1999/xlink" overflow="hidden"><defs><clipPath id="clip0"><rect x="120" y="55" width="1040" height="499"/></clipPath><clipPath id="clip1"><rect x="213" y="99" width="96" height="96"/></clipPath><clipPath id="clip2"><rect x="213" y="99" width="96" height="96"/></clipPath><clipPath id="clip3"><rect x="213" y="99" width="96" height="96"/></clipPath><clipPath id="clip4"><rect x="1019" y="403" width="96" height="96"/></clipPath><clipPath id="clip5"><rect x="1019" y="403" width="96" height="96"/></clipPath><clipPath id="clip6"><rect x="1019" y="403" width="96" height="96"/></clipPath><clipPath id="clip7"><rect x="213" y="403" width="96" height="96"/></clipPath><clipPath id="clip8"><rect x="213" y="403" width="96" height="96"/></clipPath><clipPath id="clip9"><rect x="213" y="403" width="96" height="96"/></clipPath><clipPath id="clip10"><rect x="971" y="99" width="96" height="96"/></clipPath><clipPath id="clip11"><rect x="971" y="99" width="96" height="96"/></clipPath><clipPath id="clip12"><rect x="971" y="99" width="96" height="96"/></clipPath><clipPath id="clip13"><rect x="528" y="99" width="96" height="96"/></clipPath><clipPath id="clip14"><rect x="528" y="99" width="96" height="96"/></clipPath><clipPath id="clip15"><rect x="528" y="99" width="96" height="96"/></clipPath></defs><g clip-path="url(#clip0)" transform="translate(-120 -55)"><rect x="122.5" y="57.5001" width="1036" height="496" stroke="#2F528F" stroke-width="1.33333" stroke-miterlimit="8" fill="#4472C4"/><g clip-path="url(#clip1)"><g clip-path="url(#clip2)"><g clip-path="url(#clip3)"><path d="M291.526 169 263.345 122.5 270.581 110.559C271.172 109.626 270.895 108.39 269.962 107.799 269.029 107.208 267.793 107.485 267.202 108.418 267.188 108.441 267.174 108.463 267.161 108.486L263.006 115.341 263.006 106C263.006 104.895 262.111 104 261.006 104 259.901 104 259.006 104.895 259.006 106L259.006 115.341 254.851 108.486C254.297 107.53 253.074 107.204 252.118 107.758 251.162 108.312 250.836 109.535 251.39 110.491 251.403 110.514 251.417 110.537 251.431 110.559L258.667 122.5 230.485 169 221.006 169 221.006 175 301.006 175 301.006 169ZM253.226 168.5C253.4 157.226 256.41 150 261.006 150 265.602 150 268.617 157.226 268.784 168.5Z"/></g></g></g><g clip-path="url(#clip4)"><g clip-path="url(#clip5)"><g clip-path="url(#clip6)"><path d="M1100.8 435.8C1099.6 431.8 1097 428.4 1093.4 426.3 1093.4 426 1093.4 425.7 1093.4 425.4 1093.5 418.6 1087.9 413 1081 413 1078.9 413 1077 413.5 1075.3 414.4 1073 411.1 1069.3 409 1065 409 1059.5 409 1054.8 412.6 1053.1 417.6 1051.3 416.6 1049.2 416 1047 416 1040.1 416 1034.5 421.6 1034.5 428.5 1034.5 431.1 1035.3 433.5 1036.7 435.5 1030.2 437.2 1025.5 443 1025.5 450 1025.5 458.3 1032.2 465 1040.5 465 1041.7 465 1042.9 464.8 1044.1 464.6 1048.9 466.8 1059.5 473.2 1060 480.5L1059.6 490C1059.6 490.5 1059.4 491 1059 491.4L1058.1 492.3C1057.5 493 1057.9 494 1058.8 494L1069.8 494C1070.6 494 1071 493.2 1070.7 492.5 1070.7 492.5 1070.2 491.5 1069.9 491.2 1069.6 490.8 1069.3 490.4 1069.3 489.8L1068.9 477.7C1068.9 477.6 1069 477.5 1069 477.5 1069.8 473.9 1074.6 471.5 1079.7 469 1084.8 466.5 1090.8 463.5 1092.7 458.3 1093.9 458.7 1095.2 459 1096.6 459 1103.2 459 1108.6 453.6 1108.6 447 1108.5 441.9 1105.3 437.5 1100.8 435.8ZM1064.8 466.3C1064.5 463.8 1063.9 460.8 1062.7 457.9 1065.2 457.6 1067.5 456.8 1069.5 455.6 1067.4 459.2 1065.8 463.1 1064.8 466.3ZM1049.7 461.8C1051.5 460.4 1053 458.5 1054.1 456.4 1055 456.8 1055.9 457.2 1056.9 457.4 1059.5 461.7 1060 466.6 1060 469.7 1056.8 466.3 1052.7 463.6 1049.7 461.8ZM1077.4 464.5C1074.5 465.9 1071.5 467.4 1069.1 469.2 1070.4 465.1 1072.7 458.9 1076.3 454.4 1078.8 456 1081.8 456.9 1085 456.9 1086 456.9 1086.9 456.8 1087.8 456.6 1086.7 459.7 1082.8 461.8 1077.4 464.5Z"/></g></g></g><g clip-path="url(#clip7)"><g clip-path="url(#clip8)"><g clip-path="url(#clip9)"><path d="M292 479 274 451 285 454 272 434 280 435 261 407 242 435 250 434 237 454 248 451 230 479 257 474 257 495 265 495 265 474Z"/></g></g></g><g clip-path="url(#clip10)"><g clip-path="url(#clip11)"><g clip-path="url(#clip12)"><path d="M1049.53 169 1021.34 122.5 1028.58 110.559C1029.17 109.626 1028.9 108.39 1027.96 107.799 1027.03 107.208 1025.79 107.485 1025.2 108.418 1025.19 108.441 1025.17 108.463 1025.16 108.486L1021.01 115.341 1021.01 106C1021.01 104.895 1020.11 104 1019.01 104 1017.9 104 1017.01 104.895 1017.01 106L1017.01 115.341 1012.85 108.486C1012.3 107.53 1011.07 107.204 1010.12 107.758 1009.16 108.312 1008.84 109.535 1009.39 110.491 1009.4 110.514 1009.42 110.537 1009.43 110.559L1016.67 122.5 988.485 169 979.006 169 979.006 175 1059.01 175 1059.01 169ZM1011.23 168.5C1011.4 157.226 1014.41 150 1019.01 150 1023.6 150 1026.62 157.226 1026.78 168.5Z"/></g></g></g><g clip-path="url(#clip13)"><g clip-path="url(#clip14)"><g clip-path="url(#clip15)"><path d="M609.8 131.8C608.6 127.8 606 124.4 602.4 122.3 602.4 122 602.4 121.7 602.4 121.4 602.5 114.6 596.9 109 590 109 587.9 109 586 109.5 584.3 110.4 582 107.1 578.3 105 574 105 568.5 105 563.8 108.6 562.1 113.6 560.3 112.6 558.2 112 556 112 549.1 112 543.5 117.6 543.5 124.5 543.5 127.1 544.3 129.5 545.7 131.5 539.2 133.2 534.5 139 534.5 146 534.5 154.3 541.2 161 549.5 161 550.7 161 551.9 160.8 553.1 160.6 557.9 162.8 568.5 169.2 569 176.5L568.6 186C568.6 186.5 568.4 187 568 187.4L567.1 188.3C566.5 189 566.9 190 567.8 190L578.8 190C579.6 190 580 189.2 579.7 188.5 579.7 188.5 579.2 187.5 578.9 187.2 578.6 186.8 578.3 186.4 578.3 185.8L577.9 173.7C577.9 173.6 578 173.5 578 173.5 578.8 169.9 583.6 167.5 588.7 165 593.8 162.5 599.8 159.5 601.7 154.3 602.9 154.7 604.2 155 605.6 155 612.2 155 617.6 149.6 617.6 143 617.5 137.9 614.3 133.5 609.8 131.8ZM573.8 162.3C573.5 159.8 572.9 156.8 571.7 153.9 574.2 153.6 576.5 152.8 578.5 151.6 576.4 155.2 574.8 159.1 573.8 162.3ZM558.7 157.8C560.5 156.4 562 154.5 563.1 152.4 564 152.8 564.9 153.2 565.9 153.4 568.5 157.7 569 162.6 569 165.7 565.8 162.3 561.7 159.6 558.7 157.8ZM586.4 160.5C583.5 161.9 580.5 163.4 578.1 165.2 579.4 161.1 581.7 154.9 585.3 150.4 587.8 152 590.8 152.9 594 152.9 595 152.9 595.9 152.8 596.8 152.6 595.7 155.7 591.8 157.8 586.4 160.5Z"/></g></g></g></g></svg>